<svg width="32" height="32" viewBox="0 0 32 32" fill="none" xmlns="http://www.w3.org/2000/svg">
  <!-- Background Circle -->
  <circle cx="16" cy="16" r="16" fill="#000000"/>
  
  <!-- Lightbulb Icon -->
  <path d="M16 4C12.686 4 10 6.686 10 10C10 12.5 11.5 14.6 13.5 15.7V18C13.5 18.8 14.2 19.5 15 19.5H17C17.8 19.5 18.5 18.8 18.5 18V15.7C20.5 14.6 22 12.5 22 10C22 6.686 19.314 4 16 4ZM15 21H17V22C17 22.8 16.3 23.5 15.5 23.5H16.5C17.3 23.5 18 22.8 18 22V21H17H15Z" fill="#FFEE00"/>
  
  <!-- Spark Effects -->
  <circle cx="8" cy="8" r="1.5" fill="#FFEE00" opacity="0.8"/>
  <circle cx="24" cy="8" r="1" fill="#FFEE00" opacity="0.6"/>
  <circle cx="6" cy="20" r="1" fill="#FFEE00" opacity="0.7"/>
  <circle cx="26" cy="22" r="1.5" fill="#FFEE00" opacity="0.5"/>
  
  <!-- AI Circuit Lines -->
  <path d="M4 16L6 16M26 16L28 16M16 4L16 6M16 26L16 28" stroke="#FFEE00" stroke-width="1" opacity="0.4"/>
</svg>
